<?xml version="1.0" standalone="no"?>
<!DOCTYPE svg PUBLIC "-//W3C//DTD SVG 20010904//EN"
 "http://www.w3.org/TR/2001/REC-SVG-20010904/DTD/svg10.dtd">
<svg version="1.0" xmlns="http://www.w3.org/2000/svg"
 width="1024.000000pt" height="1024.000000pt" viewBox="0 0 1024.000000 1024.000000"
 preserveAspectRatio="xMidYMid meet">
<metadata>
Created by potrace 1.11, written by Peter Selinger 2001-2013
</metadata>
<g transform="translate(0.000000,1024.000000) scale(0.100000,-0.100000)"
fill="#000000" stroke="none">
<path d="M5015 10049 c-170 -10 -272 -35 -435 -111 -190 -87 -243 -119 -385
-225 -38 -29 -75 -53 -81 -53 -6 0 -20 -10 -32 -22 -11 -13 -43 -41 -71 -63
-28 -22 -157 -150 -288 -285 -413 -426 -477 -488 -673 -648 -66 -54 -158 -111
-256 -160 -232 -114 -425 -240 -552 -360 -82 -77 -162 -175 -162 -198 0 -6 -7
-14 -15 -18 -8 -3 -15 -11 -15 -19 0 -7 -14 -39 -30 -69 -58 -107 -83 -194
-88 -306 -4 -88 -1 -113 18 -170 38 -116 71 -150 179 -185 l44 -14 -27 -19
c-241 -170 -416 -450 -416 -666 0 -71 17 -171 42 -245 18 -53 24 -61 39 -53
14 8 16 6 12 -10 -4 -16 6 -77 24 -142 11 -44 18 -9 19 105 1 93 7 136 22 182
l20 60 1 -86 c3 -216 103 -423 295 -606 l93 -89 7 -91 c16 -214 88 -407 202
-543 35 -41 141 -123 192 -149 38 -20 42 -20 32 -4 -6 10 -19 32 -29 48 -47
78 -79 328 -57 433 18 82 31 95 41 41 36 -192 71 -233 245 -289 41 -13 78 -26
82 -30 13 -10 -18 -110 -42 -135 -23 -24 -23 -25 -3 -25 11 0 51 29 89 65 69
65 90 75 112 53 7 -7 12 -8 12 -4 0 12 91 -43 128 -78 43 -39 68 -89 87 -168
27 -116 24 -130 -53 -222 -92 -108 -144 -188 -197 -299 -55 -116 -75 -212 -75
-367 0 -204 61 -400 178 -570 59 -86 173 -197 246 -240 48 -29 65 -46 92 -95
58 -106 123 -401 139 -630 8 -113 16 -153 35 -170 16 -15 18 -14 24 2 6 14 10
12 25 -14 11 -17 30 -33 43 -36 19 -5 24 -13 26 -44 5 -109 15 -159 34 -180
11 -12 26 -19 33 -16 14 5 19 -20 30 -147 15 -183 27 -221 40 -122 7 53 8 55
16 27 5 -16 11 -104 14 -194 3 -117 9 -167 17 -173 22 -13 26 22 21 179 l-6
152 29 -8 c30 -8 31 -10 56 -103 7 -26 18 -49 26 -50 11 -2 15 -42 18 -198 8
-421 17 -620 25 -620 5 0 9 8 10 18 0 15 1 15 8 -2 4 -11 9 -15 12 -10 2 5 2
176 -1 379 -6 448 -2 569 20 555 12 -8 15 -37 15 -157 1 -82 4 -154 9 -161 12
-20 23 -14 34 21 5 17 10 24 11 15 1 -10 5 -18 10 -18 6 0 7 42 4 107 -8 129
11 137 22 9 8 -97 29 -134 40 -69 15 95 19 103 37 89 12 -9 21 -38 29 -92 30
-221 134 -471 212 -513 33 -18 58 -84 55 -147 -2 -38 0 -49 12 -49 12 0 16 16
18 75 3 75 10 90 45 90 12 0 17 -8 17 -25 0 -32 26 -33 35 -2 4 12 21 50 38
85 23 46 36 61 47 56 8 -3 29 -10 46 -15 21 -6 35 -20 47 -47 9 -21 17 -44 17
-50 0 -6 5 -23 10 -38 17 -45 38 -11 41 66 l3 65 40 15 c47 18 66 49 70 113 3
54 -11 120 -29 129 -7 5 -12 16 -10 26 2 9 4 20 4 25 1 4 7 7 15 7 8 0 26 14
41 31 14 17 27 30 29 28 14 -15 36 -124 36 -177 0 -75 21 -83 31 -11 4 37 7
41 15 24 11 -24 11 -112 -1 -247 -7 -89 -6 -98 10 -104 33 -13 43 19 42 137 0
109 9 143 31 117 6 -7 12 -34 14 -58 3 -50 18 -55 32 -12 11 36 11 35 34 23
22 -12 29 -45 38 -208 4 -57 10 -103 15 -103 5 0 9 -17 10 -37 1 -74 16 -82
23 -13 9 82 10 97 6 253 l-2 128 30 38 c46 57 79 128 102 219 21 83 50 286 50
352 0 44 15 69 30 54 7 -7 8 -19 1 -35 -6 -18 -5 -30 5 -44 8 -10 14 -26 14
-36 0 -9 6 -22 14 -28 8 -7 18 -26 21 -42 4 -16 15 -34 26 -39 12 -7 19 -21
19 -40 0 -16 11 -58 24 -92 14 -35 32 -85 41 -111 10 -27 21 -45 26 -40 4 4 9
75 10 157 0 82 3 155 6 162 2 6 13 10 24 7 11 -3 19 0 19 7 0 7 11 28 25 46
14 18 25 36 25 41 1 14 50 69 50 56 0 -24 15 -13 41 30 18 28 28 63 33 104 8
83 40 246 73 363 59 216 86 291 131 365 10 17 33 55 50 86 58 105 180 284 244
357 83 96 145 213 169 318 l12 52 71 7 c204 20 425 163 543 353 48 78 51 97
27 244 -9 55 -13 102 -10 105 3 4 32 -7 63 -23 32 -15 65 -29 73 -30 8 -1 41
-7 74 -14 32 -6 73 -9 92 -5 l34 6 -26 22 -25 22 133 0 c89 0 143 4 163 13
l30 14 -39 13 c-79 27 -114 115 -103 255 8 95 23 148 81 285 80 187 99 305 76
455 -12 74 -56 197 -73 203 -6 2 2 12 18 23 61 42 159 143 204 210 59 87 104
194 136 320 64 253 61 500 -9 709 -7 22 -21 65 -31 95 -10 30 -22 59 -26 65
-5 5 -9 15 -9 23 0 56 -128 260 -314 497 -17 22 -145 155 -285 295 -140 140
-279 287 -310 325 -31 39 -62 76 -69 83 -31 34 -146 220 -205 332 -62 120
-157 331 -157 350 0 5 -11 33 -24 62 -74 165 -96 215 -139 328 -57 147 -202
417 -285 529 -140 190 -331 360 -492 440 -25 12 -52 26 -60 31 -29 19 -230
105 -280 120 -295 94 -471 116 -775 99z m-2285 -2473 c0 -8 -9 -18 -20 -21
-11 -3 -20 -10 -20 -14 0 -10 -150 -135 -172 -144 -16 -5 -18 0 -18 38 0 51
-13 58 -34 18 -34 -67 -94 -92 -120 -51 -13 21 14 61 61 94 37 25 146 63 228
79 82 17 95 17 95 1z m1966 -6173 c16 -86 17 -113 4 -113 -15 0 -81 62 -89 84
-8 21 14 76 30 76 5 0 9 9 9 20 0 17 3 19 17 11 12 -6 22 -33 29 -78z m771
-134 c6 -8 16 -32 22 -54 6 -23 24 -55 41 -71 30 -32 31 -48 2 -37 -26 10 -75
70 -110 136 -28 51 -31 62 -18 69 8 4 20 25 28 46 l13 37 5 -56 c3 -31 10 -62
17 -70z m-932 53 c6 -10 20 -39 33 -64 23 -49 37 -62 61 -63 20 0 34 -60 29
-123 -3 -36 -1 -56 9 -64 21 -17 26 -3 27 75 1 66 3 72 23 75 30 4 53 -33 53
-85 0 -43 12 -57 24 -27 3 9 6 31 6 50 0 43 21 45 50 4 12 -16 27 -30 34 -30
28 0 39 -31 41 -123 2 -74 -1 -98 -16 -122 -27 -46 -72 -75 -117 -75 -34 0
-45 7 -84 48 -48 52 -99 135 -124 203 -19 54 -20 57 -39 149 -8 41 -19 97 -25
123 -5 27 -10 53 -10 58 0 15 15 10 25 -9z"/>
<path d="M4305 1080 c-3 -5 -2 -16 2 -24 11 -20 36 -4 27 17 -7 19 -20 22 -29
7z"/>
</g>
</svg>
